<?xml version="1.0" encoding="UTF-8"?>
<svg xmlns="http://www.w3.org/2000/svg" xmlns:xlink="http://www.w3.org/1999/xlink" width="357.022pt" height="504.928pt" viewBox="0 0 357.022 504.928" version="1.1">
<g id="surface1">
<path style=" stroke:none;fill-rule:nonzero;fill:rgb(41.19873%,100%,86.299133%);fill-opacity:1;" d="M 213.664062 409.46875 L 109.707031 409.46875 C 96.097656 409.46875 84.960938 398.335938 84.960938 384.722656 L 84.960938 107.699219 C 84.960938 94.089844 96.097656 82.953125 109.707031 82.953125 L 213.664062 82.953125 C 227.273438 82.953125 238.40625 94.089844 238.40625 107.699219 L 238.40625 384.722656 C 238.40625 398.335938 227.273438 409.46875 213.664062 409.46875 "/>
<path style=" stroke:none;fill-rule:nonzero;fill:rgb(12.89978%,12.89978%,12.89978%);fill-opacity:1;" d="M 84.960938 235.378906 L 84.960938 428.304688 C 84.960938 437.105469 96.097656 450.308594 109.707031 450.308594 L 213.664062 450.308594 C 227.273438 450.308594 238.40625 437.105469 238.40625 428.304688 L 238.40625 235.378906 Z M 84.960938 235.378906 "/>
<path style=" stroke:none;fill-rule:nonzero;fill:rgb(41.19873%,100%,86.299133%);fill-opacity:1;" d="M 155.34375 279.273438 C 155.34375 293.582031 143.742188 305.183594 129.433594 305.183594 C 115.121094 305.183594 103.523438 293.582031 103.523438 279.273438 C 103.523438 264.960938 115.121094 253.359375 129.433594 253.359375 C 143.742188 253.359375 155.34375 264.960938 155.34375 279.273438 "/>
<path style=" stroke:none;fill-rule:nonzero;fill:rgb(41.19873%,100%,86.299133%);fill-opacity:1;" d="M 221.144531 279.273438 C 221.144531 293.582031 209.542969 305.183594 195.234375 305.183594 C 180.921875 305.183594 169.320312 293.582031 169.320312 279.273438 C 169.320312 264.960938 180.921875 253.359375 195.234375 253.359375 C 209.542969 253.359375 221.144531 264.960938 221.144531 279.273438 "/>
<path style=" stroke:none;fill-rule:nonzero;fill:rgb(41.19873%,100%,86.299133%);fill-opacity:1;" d="M 155.34375 346.277344 C 155.34375 360.585938 143.742188 372.1875 129.433594 372.1875 C 115.121094 372.1875 103.523438 360.585938 103.523438 346.277344 C 103.523438 331.964844 115.121094 320.363281 129.433594 320.363281 C 143.742188 320.363281 155.34375 331.964844 155.34375 346.277344 "/>
</g>
</svg>
